<?xml version="1.0" standalone="no"?>
<!DOCTYPE svg PUBLIC "-//W3C//DTD SVG 20010904//EN"
 "http://www.w3.org/TR/2001/REC-SVG-20010904/DTD/svg10.dtd">
<svg version="1.0" xmlns="http://www.w3.org/2000/svg"
 width="512.000000pt" height="512.000000pt" viewBox="0 0 512.000000 512.000000"
 preserveAspectRatio="xMidYMid meet">
<metadata>
Created by potrace 1.15, written by Peter Selinger 2001-2017
</metadata>
<g transform="translate(0.000000,512.000000) scale(0.100000,-0.100000)"
fill="#000000" stroke="none">
<path d="M2238 4945 c-372 -51 -710 -178 -1013 -380 -149 -99 -230 -166 -359
-293 -384 -380 -621 -859 -692 -1402 -23 -176 -15 -526 15 -695 46 -260 120
-478 235 -700 71 -136 163 -285 177 -285 5 0 9 -6 9 -12 1 -21 139 -187 245
-293 185 -186 386 -330 625 -449 355 -176 688 -252 1095 -250 1046 5 1979 716
2269 1729 14 50 28 104 31 120 2 17 13 75 24 130 117 607 -45 1308 -420 1816
-397 537 -974 878 -1632 964 -145 18 -471 19 -609 0z m687 -94 c489 -85 915
-307 1260 -657 72 -73 150 -158 175 -190 290 -376 465 -835 487 -1272 l6 -122
-239 2 -239 3 -12 110 c-22 205 -56 351 -122 522 -32 82 -50 100 -84 87 -26
-10 -25 -35 6 -109 60 -147 109 -358 122 -528 l7 -87 -244 2 -243 3 -7 75 c-4
41 -12 95 -18 120 -6 25 -13 58 -16 74 -9 48 -64 197 -96 259 -16 33 -38 61
-50 66 -14 5 -17 10 -10 15 33 20 -187 269 -325 368 -138 100 -313 177 -485
214 -102 22 -306 29 -409 15 -421 -60 -770 -304 -959 -671 -77 -151 -116 -284
-138 -475 l-7 -60 -240 0 -240 0 3 65 c7 161 46 343 112 519 35 92 40 114 29
127 -7 8 -24 14 -38 12 -22 -3 -30 -15 -65 -103 -64 -166 -101 -333 -121 -557
l-7 -68 -239 0 -239 0 0 75 c0 65 -2 74 -17 68 -11 -4 -14 -3 -9 5 4 7 13 12
20 12 9 0 15 24 20 77 35 387 228 844 497 1178 187 233 471 465 722 591 48 24
87 49 87 54 0 6 9 10 19 10 11 0 41 9 68 21 157 67 371 128 543 153 163 24
162 24 395 21 166 -2 249 -8 340 -24z m-205 -1115 c504 -76 900 -468 986 -974
18 -102 16 -353 -3 -400 -8 -22 -12 -18 -38 43 -57 134 -164 244 -300 305 -85
39 -155 53 -259 52 -151 -1 -279 -51 -392 -155 l-56 -51 -127 -1 c-69 -1 -137
-6 -150 -10 -16 -5 -22 -5 -18 2 4 6 22 14 42 17 96 18 233 107 302 197 23 30
56 84 72 119 33 71 71 206 71 253 l0 30 -87 -7 c-123 -9 -204 -30 -292 -76
-78 -41 -164 -116 -209 -182 -21 -33 -23 -40 -11 -55 13 -16 12 -17 -4 -4 -15
12 -19 8 -42 -43 -14 -31 -32 -85 -41 -120 l-16 -63 -66 5 c-81 5 -142 -15
-142 -48 0 -29 21 -34 79 -20 68 16 127 -1 115 -34 -4 -11 -8 -41 -9 -66 -1
-38 -9 -55 -45 -100 -24 -30 -58 -86 -76 -125 -30 -64 -64 -195 -64 -245 0
-55 -90 -25 -110 37 -21 65 -17 63 -190 58 l-157 -6 -21 49 c-12 27 -33 88
-47 137 -14 49 -31 95 -38 103 -8 11 -9 16 -1 19 8 2 8 20 2 56 -4 29 -8 103
-7 166 3 251 102 523 262 712 31 38 57 78 57 89 0 11 5 20 11 20 5 0 7 -4 4
-10 -12 -19 4 -10 42 25 181 168 416 277 668 308 73 9 218 6 305 -7z m-63
-703 c-122 -110 -410 -358 -418 -361 -4 -2 -4 10 0 26 27 94 100 205 173 265
74 61 198 114 271 116 26 1 25 -1 -26 -46z m83 -76 c-49 -130 -143 -234 -264
-293 -66 -32 -172 -61 -183 -50 -3 2 12 20 33 38 344 303 429 376 432 369 1
-5 -7 -33 -18 -64z m539 -284 c30 -10 56 -23 58 -28 2 -6 -37 -80 -86 -165
-75 -133 -92 -155 -115 -158 -14 -2 -26 0 -26 3 0 4 -20 85 -45 181 -25 95
-45 176 -45 178 0 22 187 14 259 -11z m-325 -11 c8 -13 85 -316 81 -320 -2 -2
-20 12 -42 30 -55 49 -155 113 -208 133 -25 10 -45 23 -45 30 0 16 70 71 136
106 59 31 70 34 78 21z m534 -119 c66 -65 145 -193 130 -208 -4 -4 -86 -27
-184 -51 -167 -42 -178 -44 -195 -28 -11 9 -19 21 -19 26 0 16 182 328 191
328 5 0 40 -30 77 -67z m-2198 -46 c0 -63 32 -222 64 -320 18 -54 30 -100 27
-102 -2 -3 -26 -5 -52 -5 -55 0 -61 -9 -53 -83 8 -82 31 -161 65 -229 30 -60
98 -157 110 -158 3 0 27 -20 52 -45 53 -50 153 -105 243 -131 53 -15 150 -21
292 -16 54 2 113 -28 183 -92 36 -34 91 -76 121 -94 146 -87 352 -121 489 -82
20 6 31 4 39 -5 7 -8 27 -19 47 -26 28 -9 43 -8 79 6 62 23 94 65 94 122 0 38
6 52 41 91 23 26 58 81 78 122 20 41 43 81 51 88 35 29 108 80 145 101 150 86
252 219 290 377 10 38 30 112 46 164 31 103 59 249 59 311 l0 39 525 0 525 0
0 -77 c0 -98 -31 -308 -64 -438 -235 -923 -995 -1600 -1941 -1731 -115 -15
-489 -24 -525 -11 -8 3 -55 10 -105 17 -188 24 -418 91 -615 179 -60 27 -110
44 -110 38 0 -5 -11 2 -25 17 -15 16 -32 25 -40 22 -8 -3 -14 -1 -12 4 1 4
-37 33 -86 64 -229 144 -469 363 -621 566 -275 368 -438 804 -463 1236 l-6
114 526 0 527 0 0 -33z m997 15 c6 -4 16 -19 22 -34 l10 -26 43 16 c32 12 76
17 168 16 110 0 133 -3 192 -26 144 -54 259 -145 348 -274 192 -278 185 -630
-16 -840 -52 -54 -53 -56 -38 -79 21 -32 11 -58 -31 -81 -42 -23 -72 -8 -91
44 0 1 -21 -5 -45 -15 -31 -11 -77 -16 -154 -17 -125 0 -175 12 -293 75 -41
22 -78 37 -83 33 -5 -3 -9 0 -9 5 0 6 -28 39 -63 74 -156 153 -237 341 -237
546 0 53 6 120 14 149 9 36 10 52 2 52 -7 0 -7 3 1 8 7 4 27 36 44 71 17 35
59 92 92 127 56 61 59 66 43 83 -24 26 -20 57 12 80 29 22 49 26 69 13z m1359
-278 c16 -64 -15 -251 -49 -298 -13 -18 -22 -14 -163 69 -82 49 -154 93 -161
99 -6 6 -9 23 -6 37 5 25 14 29 176 72 95 25 178 46 184 46 7 1 16 -11 19 -25z
m-255 -280 c181 -108 176 -98 85 -181 -54 -50 -179 -123 -191 -111 -3 3 -8 48
-10 99 -3 91 -23 206 -44 262 -6 15 -8 27 -5 27 3 0 78 -43 165 -96z m-1617
25 l15 -31 -97 -101 c-54 -56 -119 -124 -144 -151 -27 -29 -50 -46 -56 -42
-24 15 -94 128 -117 190 -13 35 -27 87 -31 115 l-7 51 211 0 211 0 15 -31z
m97 -89 c18 -10 19 -23 19 -217 l0 -206 -55 7 c-88 10 -208 62 -284 122 -6 5
280 304 291 304 5 0 18 -5 29 -10z m118 -230 c13 -36 36 -88 52 -117 16 -29
24 -55 19 -58 -5 -3 -32 -9 -60 -12 l-50 -6 0 139 c0 76 4 134 8 129 5 -6 19
-39 31 -75z"/>
<path d="M2569 4583 c-55 -97 -54 -93 -34 -93 9 0 13 -4 10 -10 -3 -5 -14 -10
-23 -10 -11 0 -39 -39 -81 -111 -59 -102 -65 -109 -81 -94 -9 8 -81 89 -161
179 -79 90 -145 163 -145 163 -4 -4 57 -581 61 -585 2 -3 20 -1 40 2 41 8 40
-2 20 190 -8 77 -13 141 -11 143 3 3 165 -176 207 -229 18 -23 9 -35 123 170
32 57 59 102 61 100 4 -3 35 -288 35 -316 0 -11 9 -13 41 -9 22 3 43 7 45 9 5
5 -53 568 -59 574 -2 2 -23 -31 -48 -73z"/>
<path d="M3145 4487 c-85 -26 -145 -76 -185 -156 -26 -51 -36 -132 -23 -181 8
-31 14 -36 49 -41 l39 -6 -32 -8 c-18 -4 -33 -11 -33 -15 0 -4 13 -25 29 -47
56 -77 132 -113 240 -113 249 0 373 291 207 487 -59 70 -198 108 -291 80z
m138 -78 c47 -13 102 -60 128 -110 41 -81 14 -201 -57 -255 -87 -67 -192 -64
-270 8 -90 83 -94 202 -11 293 60 66 128 87 210 64z"/>
<path d="M1490 4334 c-85 -53 -156 -97 -158 -99 -4 -3 98 -167 112 -180 6 -6
12 -15 13 -21 1 -7 142 -243 169 -282 4 -6 317 193 320 203 2 6 -5 21 -15 34
l-19 24 -103 -63 c-57 -35 -114 -70 -126 -78 -21 -13 -24 -11 -68 59 -36 56
-44 74 -33 80 7 5 57 36 111 70 l97 60 -20 30 c-12 16 -23 29 -25 29 -2 0 -46
-26 -97 -58 -51 -32 -99 -61 -105 -65 -8 -5 -28 16 -58 63 -25 38 -45 72 -45
74 0 3 18 15 40 27 22 13 40 26 40 31 0 4 5 8 11 8 12 0 149 80 149 87 0 5
-30 63 -33 63 -1 0 -72 -43 -157 -96z"/>
<path d="M3760 3933 c-107 -91 -207 -175 -223 -187 l-27 -22 27 -32 28 -32
147 125 c82 69 150 125 154 125 3 0 3 -12 0 -27 -10 -48 -38 -425 -32 -439 3
-7 1 -16 -4 -19 -6 -4 -10 -26 -10 -50 l0 -45 220 186 c121 102 220 189 220
194 0 5 -10 21 -22 35 l-23 26 -103 -86 c-56 -48 -100 -91 -96 -96 3 -5 -1 -6
-8 -4 -8 3 -29 -10 -48 -30 -35 -36 -56 -46 -46 -20 3 8 10 72 15 142 23 276
32 415 29 418 -2 1 -91 -72 -198 -162z"/>
<path d="M857 3736 l-25 -32 221 -170 c122 -93 224 -170 227 -172 8 -3 220
273 220 287 0 6 -12 18 -26 27 -24 16 -26 16 -46 -4 -18 -17 -19 -23 -8 -36 7
-10 8 -16 2 -16 -6 0 -12 5 -14 11 -2 7 -34 -27 -70 -75 l-66 -86 -29 23 c-15
13 -103 80 -195 150 l-166 126 -25 -33z"/>
<path d="M3067 3083 c-4 -3 -7 -17 -7 -29 0 -31 21 -36 144 -32 104 3 127 14
113 52 -5 14 -24 16 -125 16 -65 0 -122 -3 -125 -7z"/>
<path d="M3006 2957 c-13 -9 -16 -20 -12 -34 6 -20 16 -22 114 -25 183 -5 261
1 272 22 7 14 6 23 -6 34 -13 13 -44 16 -183 16 -123 0 -172 -3 -185 -13z"/>
<path d="M710 2069 c-68 -28 -92 -97 -50 -139 28 -28 97 -27 141 3 28 19 35
30 37 63 2 29 -2 45 -16 57 -24 22 -79 30 -112 16z m94 -35 c24 -24 19 -50
-15 -78 -35 -30 -83 -34 -111 -9 -25 22 -23 49 7 78 29 30 94 34 119 9z"/>
<path d="M4230 2006 c0 -8 27 -24 65 -38 36 -12 65 -26 65 -29 0 -4 -43 -26
-95 -50 -52 -23 -92 -46 -88 -49 5 -4 50 -24 102 -44 74 -29 96 -34 102 -24 6
9 -4 18 -34 31 -23 9 -55 23 -71 30 l-29 13 97 44 c53 25 96 47 96 50 0 5
-191 80 -203 80 -4 0 -7 -6 -7 -14z"/>
<path d="M804 1836 c-73 -32 -95 -96 -49 -141 27 -28 60 -31 109 -11 66 28 86
96 41 141 -27 28 -55 31 -101 11z m90 -32 c32 -32 8 -82 -50 -104 -51 -20
-103 15 -89 60 16 51 105 79 139 44z"/>
<path d="M4123 1715 c-17 -7 -39 -27 -47 -44 -61 -117 81 -225 175 -135 57 54
43 151 -25 179 -43 18 -62 18 -103 0z m90 -26 c52 -24 60 -87 18 -130 -36 -36
-70 -37 -110 -3 -41 34 -42 80 -5 118 29 28 59 33 97 15z"/>
<path d="M1161 1287 c-55 -56 -79 -87 -71 -92 7 -4 24 5 41 21 27 25 31 27 45
12 13 -13 14 -22 4 -58 -11 -42 -8 -70 8 -70 4 0 14 23 21 50 11 43 16 50 37
50 13 0 33 9 44 20 30 30 25 71 -12 114 l-33 37 -84 -84z"/>
<path d="M3712 1234 c-50 -44 -52 -47 -36 -65 9 -10 21 -16 27 -12 5 3 7 2 4
-4 -3 -5 20 -37 51 -71 l57 -62 54 49 c68 61 61 90 -7 31 l-47 -40 -24 27 -25
26 39 34 c24 21 35 37 29 43 -6 6 -22 -2 -43 -20 -41 -37 -46 -37 -68 -4 -17
27 -17 27 25 64 37 31 45 50 23 50 -4 0 -30 -21 -59 -46z"/>
<path d="M1448 1032 c-32 -49 -58 -91 -58 -95 0 -19 31 -3 47 23 20 34 26 36
43 15 33 -40 120 -1 120 53 0 24 -63 92 -84 92 -6 0 -37 -40 -68 -88z"/>
<path d="M1647 915 c-26 -52 -47 -99 -47 -103 0 -16 120 -66 130 -56 7 7 -6
18 -40 34 -52 24 -60 41 -36 73 14 18 16 18 56 -3 59 -30 76 -10 19 21 -51 29
-55 39 -31 69 l19 23 46 -25 c43 -24 57 -26 57 -6 0 6 -111 68 -122 68 -2 0
-25 -43 -51 -95z"/>
<path d="M2020 855 c-7 -8 -10 -27 -7 -43 4 -22 0 -30 -26 -47 -68 -43 -36
-129 45 -123 26 1 43 -2 46 -10 2 -6 10 -12 18 -12 11 0 11 5 2 25 -9 21 -7
29 16 59 30 39 31 46 13 46 -8 0 -20 -11 -27 -25 -7 -14 -16 -25 -19 -25 -3 0
-17 27 -30 61 -21 54 -22 63 -8 76 11 12 19 12 35 4 13 -7 23 -7 27 -2 7 12
-26 31 -53 31 -11 0 -25 -7 -32 -15z"/>
<path d="M2565 693 c-22 -58 -41 -110 -43 -115 -2 -4 3 -8 10 -8 8 0 21 15 29
33 12 26 20 33 50 35 32 3 39 -1 57 -32 19 -31 42 -48 42 -30 0 8 -91 206 -99
216 -3 4 -24 -41 -46 -99z"/>
</g>
</svg>
