<svg version="1" xmlns="http://www.w3.org/2000/svg" width="682.667" height="682.667" viewBox="0 0 512.000000 512.000000"><path d="M223.8 17.5c-37.2 5.1-71 17.8-101.3 38-14.9 9.9-23 16.6-35.9 29.3-38.2 37.8-62.1 86-69.1 139.5-2.2 17.4-2 46.7.5 64.1C28.1 357 65.1 415.5 123 454.2c12 8 38.3 21.2 51.3 25.7 42.1 14.7 86.7 17.5 130.2 8.4 85.7-17.9 155.7-83.1 179.9-167.8 1.4-5 2.8-10.4 3.1-12 .2-1.7 1.3-7.5 2.4-13 4-20.5 4.7-46.7 2-69.5-6.2-52.6-30.7-102.9-68-140.1-38.1-38-85.8-61.4-139.2-68.4-14.5-1.8-47.1-1.9-60.9 0zm55 7.6C323 29.9 363.5 46.6 399.5 75c9 7.2 29.7 27.9 36.5 36.6 28.9 37.4 46.5 83.5 48.7 127.2l.6 12.2-23.9-.2-23.9-.3-.7-7c-2.6-24-5.6-37.6-12.4-55.2-3.5-9.2-5.2-11.1-8.7-9.7-2.6 1-2.5 3.5.6 10.9 6 14.7 10.9 35.8 12.2 52.8l.7 8.7-24.4-.2-24.3-.3-.7-7.5c-.4-4.1-1.2-9.5-1.8-12-.6-2.5-1.3-5.8-1.6-7.4-.9-4.8-6.4-19.7-9.6-25.9-1.6-3.3-3.8-6.1-5-6.6-1.4-.5-1.7-1-1-1.5 3.3-2-18.7-26.9-32.5-36.8-13.8-10-31.3-17.7-48.5-21.4-10.2-2.2-30.6-2.9-40.9-1.5-19.6 2.8-39.2 10.1-55 20.7-16 10.6-31.5 28.3-40.9 46.4-7.7 15.1-11.6 28.4-13.8 47.5l-.7 6h-48l.3-6.5c.8-18.7 5.2-37.1 14.3-59.7 1.6-3.9-.1-6.6-4-6.1-2.1.3-3 1.5-5.8 8.6-6.6 16.5-11.2 36.5-12.8 56.4l-.7 7.8h-48l.4-7.5c.3-6.9.2-7.4-1.6-6.9-1.2.4-1.6.2-1.2-.5.4-.6 1.3-1.1 2-1.1.9 0 1.5-2.3 2-7.3 3.6-38.8 23-85.1 49.7-118.2 18.7-23.3 47.1-46.5 72.2-59.1 4.8-2.4 8.7-4.9 8.7-5.4 0-.6.9-1 1.9-1 1.1 0 4.1-.9 6.8-2.1 19.6-8.4 45.2-14.9 68.3-17.2 8.1-.9 36.8-.6 45.8.4zM272 138.4c50.4 7.6 90 46.8 98.6 97.4 1.3 7.2 1.5 13.1 1.1 23.6-.8 20-1.1 20.6-5.7 10.9-4.7-10-10.6-17.2-18.5-22.8-11.9-8.5-22.6-11.9-37-11.7-15.2.1-28.1 5.3-39.3 15.7l-5.7 5.3-9.1-.5c-5.1-.3-11.3-.1-14.3.6-7.9 1.7-7.3.6 1.1-2 13.8-4.4 27-15.5 33.5-28.3 3.8-7.6 7.1-17.9 7.9-24.8l.7-6.1-8.8.7c-4.9.3-11.8 1.3-15.3 2.1-13.1 3.1-27.9 13.1-34.9 23.6-2.2 3.4-2.4 4.1-1.2 5.6 1.3 1.6 1.2 1.7-.4.4-1.5-1.2-1.9-.8-4.2 4.3-1.4 3.1-3.2 8.5-4.1 12l-1.6 6.3-6.6-.5c-8.1-.5-14.2 1.5-14.2 4.8 0 2.9 2.1 3.4 7.9 2 6.8-1.6 12.7.1 11.5 3.4-.4 1.1-.8 4.1-.9 6.6-.1 3.8-.9 5.5-4.5 10-7.2 9.1-14 26.8-14 36.5 0 5.9-8.9 3.3-11-3.2-2.2-6.6-1.7-6.5-19-5.9l-15.7.6-2.1-4.8c-1.2-2.7-3.3-8.8-4.7-13.7-1.4-4.9-3.1-9.5-3.8-10.3-.8-1.1-.9-1.6-.1-1.9.8-.2.8-2 .2-5.6-.5-2.9-.8-10.3-.7-16.5.3-18 4.7-35.3 13.2-51.7 4.1-7.8 13.8-21.7 17-24.4.9-.7 1.7-2.5 1.7-4 0-1.9.3-2.2.9-1.2.8 1.2 2.2.3 6.9-4.1 24.8-22.9 60.6-33.6 95.2-28.4zm-6.5 70.4c-6.8 6.4-40.5 35.6-41.6 36-.4.2-.4-1 0-2.6 2.7-9.4 10-20.5 17.3-26.5 7.3-6 19.8-11.4 26.8-11.6 2.3-.1 2.1.3-2.5 4.7zm8.5 7.5c-4.9 13-14.3 23.4-26.4 29.3-6.6 3.2-17.2 6.1-18.3 5-.3-.2 1.2-2 3.3-3.8 34.4-30.3 42.9-37.6 43.2-36.9.1.5-.7 3.3-1.8 6.4zM25 221c0 1.1-.4 2-1 2-.5 0-1-.9-1-2s.5-2 1-2c.6 0 1 .9 1 2zm306 20.5c0 .8-.4 1.5-1 1.5-.5 0-1-.7-1-1.5s.5-1.5 1-1.5c.6 0 1 .7 1 1.5zm-3.1 3.2c3 1 5.6 2.3 5.8 2.9.2.5-3.7 7.9-8.6 16.4-7.3 12.6-9.4 15.6-11.3 15.8-2.4.3-2.6-.3-6.8-16.5-2.4-9.2-4.5-17.5-4.8-18.5-.2-1 .3-1.8 1.5-2.2 3.7-1.1 18.9.2 24.2 2.1zm-28.2 16.9c2.3 8.7 4 16 3.8 16.2-.1.2-2.3-1.4-4.8-3.5-8.1-6.7-11.7-9.1-18.2-11.9-3.6-1.6-6.5-3.3-6.5-4 0-2.5 17.7-14 20.4-13.1.6.2 3 7.5 5.3 16.3zM79 249.6c0 .8-.4 1.4-1 1.4-.5 0-1-.9-1-2.1 0-1.1.5-1.7 1-1.4.6.3 1 1.3 1 2.1zm269.8 8.1c6.5 6.4 14.5 19.4 12.9 20.9-.3.3-8.5 2.6-18.3 5-16.7 4.2-17.8 4.4-19.5 2.8-1.1-.9-1.9-2.1-1.9-2.6 0-1.6 18.2-32.8 19.1-32.8.5 0 4 3 7.7 6.7zM129 262.2c0 6.6 3.2 22.6 6.4 32.1 1.7 5.4 3 10 2.7 10.2-.2.3-2.6.5-5.2.5-5.5 0-6.1.9-5.3 8.3.8 8.2 3.1 16.1 6.5 22.9 3.7 7.4 9.9 15.7 11.7 15.8.6 0 1.2.6 1.2 1.2.1 2 9.2 8.5 17.2 12.3 10.7 5.1 20 6.8 32.5 6.1 12.7-.8 16.3.4 25.4 8.8 3.6 3.4 9.1 7.6 12.1 9.4 14.6 8.7 35.2 12.1 48.9 8.2 2-.6 3.1-.4 3.9.5.7.8 2.7 1.9 4.7 2.6 2.8.9 4.3.8 7.9-.6 6.2-2.4 9.4-6.5 9.4-12.2 0-3.9.6-5.2 4-8.9 2.2-2.4 5.7-7.8 7.7-12.1 2.1-4.3 4.5-8.4 5.3-9.1 3.5-2.9 10.8-8 14.5-10.1 15-8.6 25.2-21.9 29-37.7 1-3.8 3-11.2 4.6-16.4 3.1-10.3 5.9-24.9 5.9-31.1V259h105v7.5c0 15.4-5.3 43.6-11.9 62.7-28.2 82.6-102 142.9-188.8 154.3-12.2 1.6-48.7 2.5-52.3 1.2-.8-.3-5.5-1-10.5-1.7-18.3-2.3-42.2-9.2-61.5-17.9-6-2.7-11-4.4-11-3.8 0 .5-1.1-.2-2.5-1.7-1.6-1.7-3.2-2.6-4.1-2.2-.8.3-1.3.2-1-.3.4-.5-1.5-2.1-4.1-3.7-9-5.1-23.7-15.8-33.8-24.4-30.1-25.9-55-62.7-67.4-99.8-7-21.1-12.1-48-12.1-64.4V259h105v3.2zm99.7-1.4c.6.4 1.6 1.9 2.2 3.4l1 2.6 4.3-1.6c6.5-2.3 22.1-2.8 29.9-.8 25.9 6.5 47.6 30 53.3 57.8 4.4 21.1-.8 41.7-14 55.4-5.2 5.4-5.3 5.6-3.8 7.9 2.1 3.2 1.1 5.8-3.1 8.1s-7.2.8-9.1-4.4c0-.1-2.1.5-4.5 1.5-3.1 1.1-7.7 1.6-15.4 1.7-12.5 0-17.5-1.2-29.3-7.5-4.1-2.2-7.8-3.7-8.3-3.3-.5.3-.9-.1-.9-.9s-2-3.1-4.4-5.1c-10-8.1-19.9-24.6-23.6-39.1-2.4-9.3-2.7-24.5-.6-32.3.9-3.6 1-5.2.2-5.2-.7 0-.7-.3.1-.8.7-.4 2.7-3.6 4.4-7.1 1.7-3.5 5.9-9.2 9.2-12.7 5.6-6.1 5.9-6.6 4.3-8.3-2.4-2.6-2-5.7 1.2-8 2.9-2.2 4.9-2.6 6.9-1.3zm70.3 16.7c0 .8-.4 1.5-1 1.5-.5 0-1-.7-1-1.5s.5-1.5 1-1.5c.6 0 1 .7 1 1.5zm65.6 11.1c1.6 6.4-1.5 25.1-4.9 29.8-1.3 1.8-2.2 1.4-17.6-7.8-15.4-9.3-16.1-9.8-15.5-12.4.4-1.5.7-2.8.8-2.9.2-.2 34.1-9.1 35.3-9.2.7-.1 1.6 1.1 1.9 2.5zm-47.1.9c1.7 1.6 2.5 3.5 2.5 6 0 1.9-.3 3.5-.8 3.5-.7 0-7.2-10.2-7.2-11.4 0-1.5 3.3-.4 5.5 1.9zm21.6 27.1c13.9 8.3 15.8 9.8 14.9 11.3-1.9 3.6-11.9 11.8-18.4 15.2-7.4 3.8-8.9 3.3-7.9-2.6.7-4.4-1.4-20.3-3.6-27.5-1-3.3-1.7-6-1.4-6 .3 0 7.7 4.3 16.4 9.6zm-161.7-2.5l1.5 3.1-9.7 10.1c-5.4 5.6-11.9 12.4-14.4 15.1-2.7 2.9-5 4.6-5.6 4.2-2.4-1.5-9.4-12.8-11.7-19-1.3-3.5-2.7-8.7-3.1-11.5l-.7-5.1h42.2l1.5 3.1zm9.7 8.9c1.8 1 1.9 2.3 1.9 21.7v20.6l-5.5-.7c-8.8-1-20.8-6.2-28.4-12.2-.6-.5 28-30.4 29.1-30.4.5 0 1.8.5 2.9 1zm11.8 23c1.3 3.6 3.6 8.8 5.2 11.7 1.6 2.9 2.4 5.5 1.9 5.8-.5.3-3.2.9-6 1.2l-5 .6v-13.9c0-7.6.4-13.4.8-12.9.5.6 1.9 3.9 3.1 7.5zm23.6 143c.3.5-.1 1-1 1s-1.3-.5-1-1c.3-.6.8-1 1-1 .2 0 .7.4 1 1z"/><path d="M256.9 53.7c-5.5 9.7-5.4 9.3-3.4 9.3.9 0 1.3.4 1 1-.3.5-1.4 1-2.3 1-1.1 0-3.9 3.9-8.1 11.1-5.9 10.2-6.5 10.9-8.1 9.4-.9-.8-8.1-8.9-16.1-17.9-7.9-9-14.5-16.3-14.5-16.3-.4.4 5.7 58.1 6.1 58.5.2.3 2 .1 4-.2 4.1-.8 4 .2 2-19-.8-7.7-1.3-14.1-1.1-14.3.3-.3 16.5 17.6 20.7 22.9 1.8 2.3.9 3.5 12.3-17 3.2-5.7 5.9-10.2 6.1-10 .4.3 3.5 28.8 3.5 31.6 0 1.1.9 1.3 4.1.9 2.2-.3 4.3-.7 4.5-.9.5-.5-5.3-56.8-5.9-57.4-.2-.2-2.3 3.1-4.8 7.3zM219 74c0 .5-.4 1-1 1-.5 0-1-.5-1-1 0-.6.5-1 1-1 .6 0 1 .4 1 1zM314.5 63.3C306 65.9 300 70.9 296 78.9c-2.6 5.1-3.6 13.2-2.3 18.1.8 3.1 1.4 3.6 4.9 4 3.4.5 3.6.7 1.7 1.3-1.3.5-2.7.5-3.3.2-2-1.2-.9 2.3 1.9 6.2 5.6 7.7 13.2 11.3 24 11.3 24.9 0 37.3-29.1 20.7-48.7-5.9-7-19.8-10.8-29.1-8zm13.8 7.8c4.7 1.3 10.2 6 12.8 11 4.1 8.1 1.4 20.1-5.7 25.5-8.7 6.7-19.2 6.4-27.1-.9-8.8-8.1-9.2-20.2-.9-29.3 5.9-6.5 12.8-8.6 20.9-6.3zM149 78.6c-8.5 5.3-15.6 9.7-15.8 9.9-.4.3 9.8 16.7 11.2 18 .6.6 1.2 1.5 1.3 2.1.1.7 14.2 24.3 16.9 28.2.4.6 31.7-19.3 32-20.3.2-.6-.5-2.1-1.5-3.4l-1.9-2.4-10.3 6.3c-5.7 3.5-11.4 7-12.6 7.8-2.1 1.3-2.4 1.1-6.8-5.9-3.6-5.6-4.4-7.4-3.3-8 .7-.5 5.7-3.6 11.1-7l9.7-6-2-3c-1.2-1.6-2.3-2.9-2.5-2.9-.2 0-4.6 2.6-9.7 5.8-5.1 3.2-9.9 6.1-10.5 6.5-.8.5-2.8-1.6-5.8-6.3-2.5-3.8-4.5-7.2-4.5-7.4 0-.3 1.8-1.5 4-2.7 2.2-1.3 4-2.6 4-3.1 0-.4.5-.8 1.1-.8 1.2 0 14.9-8 14.9-8.7 0-.5-3-6.3-3.3-6.3-.1 0-7.2 4.3-15.7 9.6zM376.5 118.2c-10.4 8.8-20.5 17.3-22.2 18.7l-3.3 2.7 2.8 3.2 2.7 3.3 14.7-12.6c8.2-6.9 15.1-12.5 15.4-12.5.3 0 .4 1 .1 2.2-1 3.9-3.9 42.9-3.3 44.4.3.7.1 1.6-.4 1.9-.6.4-1 2.6-1 5v4.5l22-18.6c12.1-10.2 22-18.9 22-19.4s-1-2.1-2.2-3.5l-2.3-2.6-10.3 8.6c-5.6 4.8-10 9.1-9.6 9.6.3.5-.1.6-.8.4-.8-.3-2.9 1-4.8 3-3.5 3.6-5.6 4.6-4.6 2 .3-.8 1-7.2 1.5-14.2 2.3-27.6 3.2-41.5 2.9-41.8-.2-.2-8.8 6.9-19.3 15.7zm21.5 44.4c0 1.7-2.2 1.4-2.8-.4-.2-.7.3-1.2 1.2-1.2.9 0 1.6.7 1.6 1.6zm-8 7.8c0 .3-.4.8-1 1.1-.5.3-1 .1-1-.4 0-.6.5-1.1 1-1.1.6 0 1 .2 1 .4zM85.7 138.3l-2.5 3.3 22.1 17c12.1 9.3 22.4 17 22.7 17.2.8.3 22-27.3 22-28.7 0-.6-1.1-1.8-2.5-2.7-2.4-1.6-2.7-1.6-4.5.1-1.3 1.2-1.8 2.6-1.4 3.9.4 1.5.2 1.7-.4.8-.7-1-2.6.9-7.5 7.2l-6.5 8.6-2.9-2.3c-1.5-1.3-10.3-8-19.4-15L88.2 135l-2.5 3.3zM253.1 158.8c-.1 7.9-.2 8.3-2.7 9.3-4.8 1.8-7-.8-8.2-9.3l-.9-7.3-.2 7c-.1 8.7 1.4 11.5 6.5 11.5 5 0 7.4-2.9 7.3-8.8-.3-9.3-1.7-11.2-1.8-2.4zM264.6 155.7c-1.3 9.5-1.7 14.7-.7 13.3 1-1.6 2.7-17 1.8-17-.3 0-.8 1.7-1.1 3.7zM228.3 156.5c.3 1.1 1.3 4.6 2.2 7.7 1.8 6.2 1.5 7.8-1.6 7.8-1 0-1.9.5-1.9 1.1 0 1.6 4.2.6 5.4-1.3 1.1-1.9-1.6-14.4-3.6-16.3-.7-.7-.8-.4-.5 1zM278 157.7c-4.5 4-5.2 10.2-1.7 13.7 2.7 2.6 8 3.6 9.2 1.6.4-.6-.5-.7-2.3-.4-6.3 1.3-9.6-7.3-5.1-13 2.5-3.2 6.4-3.4 9.6-.4 2.2 2 3.1 1.6 1.5-.8-1-1.5-4.7-3.4-6.6-3.4-.9 0-3 1.2-4.6 2.7zM297.3 170.4c-2.4 4-4.3 7.6-4.3 7.9 0 .9 7.1 5 7.6 4.4.3-.3-.8-1.3-2.5-2.3-3.5-2.1-3.7-3-1.5-6.2 1.4-2.1 1.7-2.1 4.5-.7 1.6.9 2.9 1.1 2.9.5 0-.5-.3-1-.7-1-.5 0-1.6-.7-2.6-1.4-1.8-1.4-1.8-1.6-.1-4l1.7-2.6 3.3 1.9c1.9 1.1 3.4 1.6 3.4 1.2 0-.7-6.4-5.1-7.3-5.1-.1 0-2.1 3.3-4.4 7.4zM199.5 172.4l2.6 3.4-4.2 3.3-4.2 3.3-2.8-3.5c-1.6-1.9-2.9-3-2.9-2.5 0 1.3 10.2 14.8 10.7 14.2.3-.3-.5-1.9-1.8-3.7l-2.3-3.2 3.4-2.9c4.3-3.5 5.3-3.5 7.8-.1 1.1 1.6 2.3 2.6 2.5 2.3.7-.7-9.3-14-10.5-14-.5 0 .3 1.5 1.7 3.4zM176.1 188.6c-2.5 3.1-2.5 3.5-.7 5.9 1.1 1.5 2 1.7 5.2 1.1 7.3-1.5 8.9-1.3 9.2 1 .2 1.4-.6 2.9-2.2 4.2-3.3 2.5-3.3 3.5-.2 2.1 3.6-1.7 5-5.6 3.1-8.5-1.8-2.8-2-2.8-7.5-.9s-5.7 1.9-6.6-.7c-.5-1.7 0-2.7 2.2-4.5 2.1-1.7 2.4-2.3 1.2-2.3-.9 0-2.6 1.2-3.7 2.6zM164.5 206c-.8 1.6-1.5 3.3-1.5 3.8s3.4 2.7 7.5 4.9c8 4.4 7.9 4.4 10.9-1.5 2.2-4.3.6-4.1-1.8.3-1.8 3.4-1.9 3.4-4.8 1.9-3-1.5-3.1-1.9-1.3-6.9.6-1.9.6-1.9-.9-.1-.8 1-1.7 2.4-1.9 2.9-.2.7-1.4.7-3.5-.2l-3.2-1.4 1.9-3.3c1.1-1.9 1.6-3.4 1.1-3.4s-1.6 1.3-2.5 3zM306.7 203.7c-.4.3-.7 1.7-.7 2.9 0 3.1 2.1 3.6 14.4 3.2 10.4-.3 12.7-1.4 11.3-5.2-.5-1.4-2.4-1.6-12.5-1.6-6.5 0-12.2.3-12.5.7zM300.6 216.3c-1.3.9-1.6 2-1.2 3.4.6 1.9 1.6 2.1 11.9 2.4 18.3.6 25.6 0 26.7-2.1.7-1.4.6-2.3-.6-3.4-1.3-1.3-4.4-1.6-18.3-1.6-12.3 0-17.2.3-18.5 1.3zM157.6 224.2c-.8 1.3-1.7 3.7-2 5.4l-.7 3.1 8.6 2.3c4.7 1.3 8.8 2 9.1 1.7.3-.3-1.2-1.1-3.5-1.7-2.3-.6-4.1-1.3-4.1-1.5 0-.2.4-1.5.9-2.8.7-1.9 2-2.7 5-3.2 2.3-.4 4.1-1 4.1-1.5 0-.4-1.7-.4-3.7.1-3.1.7-4 .5-5-.8-.7-.9-1.3-2-1.3-2.5 0-.4-1.3-.8-3-.8-2 0-3.4.7-4.4 2.2zm6.4.3c1.5 1.8.5 8.5-1.3 8.5-.7 0-2.2-.3-3.5-.6-2-.6-2.2-1.1-1.6-3.8 1.1-5.4 3.9-7.2 6.4-4.1zM153 247.4v4.4l5.3.4c2.8.2 5.3.4 5.3.4.1-.1-.1-1.9-.5-4.1l-.7-4-.8 3.3c-.7 3-1.1 3.3-3.9 3-3-.3-3.2-.5-2.9-4.1.2-2.2-.1-3.7-.7-3.7s-1.1 1.9-1.1 4.4zM166 252c0 .5 1.2 1 2.8 1 2.1 0 2.4-.2 1.2-1-2-1.3-4-1.3-4 0zM169 275.5c-.6.8-1 2.2-.8 3.2.3 1.5 1.6 1.8 8.7 2.1 10.2.3 13.4-1.4 9.5-5.2-2.1-2.2-15.6-2.3-17.4-.1zM75.4 290.4c-.7.7-4.6 1.9-8.8 2.6-5.1.9-7.6 1.7-7.6 2.6 0 .8.1 1.4.3 1.4.9 0 19.2-4.2 19.4-4.4.5-.5-.9-3.6-1.6-3.6-.3.1-1.1.7-1.7 1.4zM429 291c-1.9 3.6-1.7 9 .5 10.6 3.1 2.3 5.2 1.6 9.1-3.1 4.1-5.1 5.9-5.6 7.5-2.1.9 1.9.8 3.1-.5 5.7-2 3.9-.5 6.5 1.8 3.3 3.5-4.6 2.7-12.6-1.3-13.9-3.2-1-5.7.3-9.1 4.6-1.8 2.1-3.8 3.9-4.6 3.9-1.9 0-2.8-4.4-1.4-7 .8-1.5.9-2.5.2-3.2-.7-.7-1.4-.3-2.2 1.2zM71 305.1c-6.8 2.8-9.2 9.7-5 13.9 2.8 2.8 9.7 2.7 14.1-.3 2.8-1.9 3.5-3 3.7-6.3.2-2.9-.2-4.5-1.6-5.7-2.4-2.2-7.9-3-11.2-1.6zm9.4 3.5c3.7 3.6-.3 9.2-7.2 10.1-3.3.4-4.2.2-5.6-1.8-2.2-3.2-2-4.6.9-7.4 2.9-3 9.4-3.4 11.9-.9zM423 311.4c0 .8 2.7 2.4 6.5 3.8 3.6 1.2 6.5 2.6 6.5 2.9 0 .4-4.3 2.6-9.5 5-5.2 2.3-9.2 4.6-8.8 4.9.5.4 5 2.4 10.2 4.4 7.4 2.9 9.6 3.4 10.2 2.4.6-.9-.4-1.8-3.4-3.1-2.3-.9-5.5-2.3-7.1-3l-2.9-1.3 9.7-4.4c5.3-2.5 9.6-4.7 9.6-5 0-.5-19.1-8-20.3-8-.4 0-.7.6-.7 1.4zM80.4 328.4c-7.3 3.2-9.5 9.6-4.9 14.1 2.8 2.9 7.1 3.3 11.5 1 6.2-3.2 7.9-9.7 3.5-14-2.7-2.8-5.5-3.1-10.1-1.1zm9 3.2c2.3 2.3 1.9 5.2-1 7.9-5 4.6-13.4 3.2-13.4-2.3 0-.7 1.3-2.7 2.9-4.3 3.4-3.3 8.9-4 11.5-1.3zM411.8 340.6c-1.5.8-3.5 2.8-4.3 4.4-6 11.6 8.2 22.4 17.6 13.4 9.6-9.2-1.7-24.2-13.3-17.8zm9.5 2.5c5.2 2.4 6 8.7 1.8 13-3.6 3.6-7 3.7-11 .3-4.1-3.4-4.2-8-.5-11.8 2.9-2.8 5.9-3.3 9.7-1.5zM92.2 350.2c-2.8 2.8-.1 7.5 3.8 6.3 1.4-.4 2-1.5 2-3.5 0-3.6-3.3-5.3-5.8-2.8zM96 353c0 .5-.7 1-1.5 1s-1.5-.5-1.5-1c0-.6.7-1 1.5-1s1.5.4 1.5 1zM87.3 359.7c-1.3.2-2.3.9-2.3 1.5 0 .7 2.2.9 6.8.5 3.7-.4 8-.7 9.5-.7 1.6 0 2.6-.4 2.2-1-.6-1-11.7-1.2-16.2-.3zM399.6 369.7c1.3 4.9 2.4 9 2.4 9.2 0 .2-2 .1-4.5-.1-3.2-.4-4.5-.2-4.5.7 0 1.4 4.3 2.5 9.5 2.5h3.3l-1.8-6c-1-3.3-1.5-6-1.1-6 .4 0 2.6 1.6 4.8 3.5 4.2 3.6 5.8 4.2 6.7 2.6.5-.7-15.5-15.1-16.7-15.1-.3 0 .6 3.9 1.9 8.7zM90.6 365.5c-1.1 2.9-.7 4.4 1.5 5.6 1.8.9 2.5.7 4.3-1 1.6-1.7 1.8-2.5 1-3.9-1.5-2.3-6-2.8-6.8-.7zm4.4 2c0 .8-.4 1.5-.9 1.5-1.3 0-2.2-1.6-1.4-2.4 1.1-1.1 2.3-.6 2.3.9zM116.1 383.3c-5.5 5.6-7.9 8.7-7.1 9.2.7.4 2.4-.5 4.1-2.1 2.7-2.5 3.1-2.7 4.5-1.2 1.3 1.3 1.4 2.2.4 5.8-1.1 4.2-.8 7 .8 7 .4 0 1.4-2.3 2.1-5 1.1-4.3 1.6-5 3.7-5 1.3 0 3.3-.9 4.4-2 3-3 2.5-7.1-1.2-11.4l-3.3-3.7-8.4 8.4zm10.1-1.6c2.1 1.9 2.3 4.4.6 6.1-1.7 1.7-4.8 1.5-7-.5-1.8-1.6-1.8-1.7.9-4.5 3.1-3.3 3.1-3.3 5.5-1.1zM384 378c0 .4 3.6 3.7 8.1 7.5 5.6 4.6 8.4 6.4 9.1 5.7.7-.7-.1-2.1-2.8-4.4-4.8-4.2-7.4-7-7.4-7.9 0-.4-1.6-.9-3.5-1.1-1.9-.2-3.5-.1-3.5.2zM371.2 388.6c-5 4.4-5.2 4.7-3.6 6.5.9 1 2.1 1.6 2.7 1.2.5-.3.7-.2.4.4-.3.5 2 3.7 5.1 7.1l5.7 6.2 5.4-4.9c6.8-6.1 6.1-9-.7-3.1l-4.7 4-2.4-2.7-2.5-2.6 3.9-3.4c2.4-2.1 3.5-3.7 2.9-4.3-.6-.6-2.2.2-4.3 2-4.1 3.7-4.6 3.7-6.8.4-1.7-2.7-1.7-2.7 2.5-6.4 3.7-3.1 4.5-5 2.3-5-.4 0-3 2.1-5.9 4.6zM133.8 400.4c-3.8 4.6-6.8 8.7-6.8 9 0 .3.6.6 1.4.6 1.9 0 14.9-15.7 14.1-17-1.1-1.8-1.9-1.1-8.7 7.4zM144.8 408.8c-3.2 4.9-5.8 9.1-5.8 9.5 0 1.9 3.1.3 4.7-2.3 2-3.4 2.6-3.6 4.3-1.5 1.8 2.2 7.6 1.9 10-.5 3.1-3.1 2.5-6.8-1.6-10.6-1.9-1.9-4.1-3.4-4.7-3.4-.7 0-3.8 4-6.9 8.8zm10-3.2c2.8 1.9 2.8 4.9 0 6.8-1.5 1.1-2.6 1.2-4 .5-2.8-1.5-3.2-3.5-1.1-6.3 2.1-3 2.2-3 5.1-1zM349.5 405c-.7 1.1 11.1 19 12.5 19 1.7 0 1.1-1.5-1.1-2.9-1.5-.9-1.8-1.5-1-2 .8-.6-.3-2.9-3.6-7.9-4.9-7.2-5.7-8-6.8-6.2zM164.5 421c-2.7 5.5-4.7 10.1-4.4 10.4 2 1.8 11.4 5.6 12.8 5.1 1.2-.5.5-1.3-3.1-3.1-2.6-1.3-4.9-2.8-5.3-3.4-.5-.8.7-4.3 2-5.8.2-.2 2.2.6 4.5 1.8 5.9 3 7.6 1 1.9-2.1-5.1-2.8-5.5-3.9-3.2-6.8l1.8-2.2 4.7 2.4c4.5 2.3 5.8 2.4 5.8.5 0-.6-11.1-6.8-12.3-6.8-.1 0-2.5 4.5-5.2 10zM332.1 414.9c-.7.5-1.5 3.5-1.8 7-.3 3.3-.9 6.1-1.2 6.1-.3 0-2.6-1.6-5-3.5-3.6-2.9-8.1-4.6-8.1-3.1 0 .2 3.1 2.9 6.8 5.9 3.8 3 7.5 6.9 8.2 8.6.7 1.7 1.6 3.1 2.1 3.1 1.7 0 1.9-2 .5-4.7-1.1-2.2-1.2-4.6-.5-11.3.4-4.6.7-8.5.6-8.7-.2-.1-.8.2-1.6.6zM366.7 417.2c-3.3 2.1-4.4 3.4-3.6 3.9 2.1 1.3 10.9-4.5 9.3-6.1-.6-.6-2.7.2-5.7 2.2zM303.1 425.8c-6.3 2-8.2 4.6-3.1 4l3.3-.3 2.5 8.7c1.5 5.6 3 8.8 3.8 8.8 1.8 0 1.8 0-1.1-9.9-2.5-8.6-2.3-10 1.3-10.1.6 0 1.2-.7 1.2-1.5 0-1.9-1.1-1.8-7.9.3zM202 426.5c-.7.8-1 2.7-.7 4.3.4 2.2 0 3-2.6 4.7-6.8 4.3-3.6 12.9 4.5 12.3 2.6-.1 4.3.2 4.6 1 .2.6 1 1.2 1.8 1.2 1.1 0 1.1-.5.2-2.5-.9-2.1-.7-2.9 1.6-5.9 3-3.9 3.1-4.6 1.3-4.6-.8 0-2 1.1-2.7 2.5-.7 1.4-1.6 2.5-1.9 2.5-.3 0-1.7-2.7-3-6.1-2.1-5.4-2.2-6.3-.8-7.6 1.1-1.2 1.9-1.2 3.5-.4 1.3.7 2.3.7 2.7.2.7-1.2-2.6-3.1-5.3-3.1-1.1 0-2.5.7-3.2 1.5zm2.5 14.1c.8 2 1.2 4 .9 4.5-1 1.6-5 .9-6.9-1.1-1.5-1.7-1.6-2.4-.7-4.5 1.7-3.8 4.9-3.2 6.7 1.1zM279.5 432.5c-1.4 1.3-2.5 3.1-2.5 3.9 0 2.1 2.7 4.5 5.8 5.2 5.1 1.1 7.2 2.3 7.2 4.4 0 2.3-3.4 4-8.1 4-2 0-2.9.4-2.6 1.2.7 2 9.3 1.5 11.7-.7 4.5-4.1 1.7-9.4-5.7-11-6.8-1.4-6.5-6.1.4-6.7 5.3-.4 5.5-2.8.3-2.8-3 0-4.7.6-6.5 2.5zM233 433.1c0 .4 1.2.9 2.8 1.1 1.5.2 2.6.7 2.6 1.3-.1.5-.5 4.9-.8 9.7-.6 7.4-.5 8.8.8 8.8 1.1 0 1.6-1.9 2.1-7.8.3-4.2.7-8.4.8-9.2.1-.8 1.5-1.6 3-1.8 1.6-.2 2.7-.9 2.7-1.8 0-1.2-1.4-1.4-7-1.3-3.8.1-7 .5-7 1zM256.5 442.7c-2.2 5.8-4.1 11-4.3 11.5-.2.4.3.8 1 .8.8 0 2.1-1.5 2.9-3.3 1.2-2.6 2-3.3 5-3.5 3.2-.3 3.9.1 5.7 3.2 1.9 3.1 4.2 4.8 4.2 3 0-.8-9.1-20.6-9.9-21.6-.3-.4-2.4 4.1-4.6 9.9zm5.8-2c.2 1 .8 2.6 1.2 3.5.6 1.5.2 1.8-1.9 1.8-2.7 0-3-.8-2-4.8.8-2.6 2-2.9 2.7-.5zM244 369.5c-2.5 3 0 5 6.1 5 5.3 0 5.4 0 5.4-3 0-2.9-.2-3-5.1-3.3-3.7-.2-5.4.1-6.4 1.3z"/></svg>